<svg xmlns="http://www.w3.org/2000/svg" viewBox="0 0 640 420"><defs><radialGradient id="glow"><stop stop-color="#edcd82" stop-opacity=".55"/><stop offset="1" stop-color="#edcd82" stop-opacity="0"/></radialGradient><linearGradient id="wall" x2="0" y2="1"><stop stop-color="#315372"/><stop offset="1" stop-color="#0d2037"/></linearGradient><pattern id="stars" width="64" height="64" patternUnits="userSpaceOnUse"><path d="m32 4 7 18 18-7-7 17 18 7-18 7 7 18-18-7-7 18-7-18-18 7 7-18-18-7 18-7-7-17 18 7Z" fill="none" stroke="#edcd82" stroke-opacity=".16"/></pattern></defs><rect width="640" height="420" fill="#102139"/><rect width="640" height="420" fill="url(#stars)"/><ellipse cx="350" cy="180" rx="290" ry="230" fill="url(#glow)"/><path d="M408 86a70 70 0 1 0 64 102 75 75 0 0 1-64-102Z" fill="#efd18a"/><g fill="none" stroke="#efd18a"><path d="m180 95 7 17 18 7-18 7-7 17-7-17-18-7 18-7Zm311 164 6 14 15 6-15 6-6 15-6-15-14-6 14-6Z"/><path d="M90 346h470M90 362h470" opacity=".35"/><path d="M171 335v-32q22-33 44 0v32m62 0v-56q22-33 44 0v56m62 0v-88q22-33 44 0v88" fill="#24415b" stroke-width="2"/><path d="m193 253 1-9m106-15 1-9m104-27 1-9" stroke-width="4"/></g></svg>
